<?xml version="1.0" encoding="utf-8"?>
<!-- Generator: Adobe Illustrator 27.2.0, SVG Export Plug-In . SVG Version: 6.00 Build 0)  -->
<svg version="1.1" id="Capa_1" xmlns="http://www.w3.org/2000/svg" xmlns:xlink="http://www.w3.org/1999/xlink" x="0px" y="0px"
	 viewBox="0 0 500 130.72" style="enable-background:new 0 0 500 130.72;" xml:space="preserve">
<style type="text/css">
	.st0{fill:#4C4CC9;}
	.st1{fill:url(#SVGID_1_);}
	.st2{fill:url(#SVGID_00000172424293739539654190000017887813537312634011_);}
	.st3{fill:url(#SVGID_00000129920235854842773860000012921508036700108971_);}
	.st4{fill:url(#SVGID_00000073001720300245716340000015926054838064925371_);}
</style>
<g>
	<path class="st0" d="M179.77,64.99L179.77,64.99c4.87-2.95,8.06-8.08,8.06-13.78c0-9.43-8.25-16.33-19.57-16.33h-25.01
		c-2.1,0-3.81,1.71-3.81,3.81v56.18c0,2.1,1.7,3.81,3.81,3.81h25.59c11.78,0,20.7-7.83,20.7-18.17
		C189.55,73.54,185.78,67.84,179.77,64.99z M156.33,48.56h8.88c3.67,0,5.94,2.24,5.94,5.55h0c0,3.31-2.27,5.55-5.94,5.55h-8.88
		V48.56z M165.87,84.24h-9.55v-11.6h9.55c3.8,0,6.29,2.39,6.29,5.77C172.17,81.86,169.68,84.24,165.87,84.24z"/>
	<path class="st0" d="M228.36,49.33v12.44c0,0.85-0.69,1.54-1.54,1.54h-5.04c-6,0-8.52,2.63-8.52,8.91v22.73
		c0,1.27-1.03,2.3-2.3,2.3h-12.32c-1.29,0-2.33-1.04-2.33-2.33V50.54c0-1.39,1.13-2.52,2.52-2.52h6.77c1.27,0,2.42,0.72,2.97,1.86
		l1.48,3.06c0.13,0.26,0.47,0.3,0.67,0.09c3.39-3.69,7.52-5.24,13.15-5.24h2.95C227.68,47.79,228.36,48.48,228.36,49.33z"/>
	<path class="st0" d="M284.66,72.17c0,0.99-0.06,1.99-0.16,2.99c-0.09,0.86-0.83,1.5-1.69,1.5l-32.79,0c-1.16,0-2.02,1.14-1.62,2.23
		c1.54,4.18,4.83,6.33,9.43,6.33c3.59,0,6.64-1.42,8.4-3.84c0.34-0.47,0.85-0.78,1.43-0.78l12.52,0c1.75,0,2.85,1.82,2.12,3.41
		c-4.28,9.23-13.41,14.84-24.46,14.84c-15.35,0-26.73-11.22-26.73-26.26c0-15.09,11.28-26.18,26.73-26.18
		C273.68,46.42,284.66,57.73,284.66,72.17L284.66,72.17z M249.31,67.27l17.52,0c0.56,0,0.97-0.56,0.77-1.08
		c-1.66-4.23-5.05-6.49-9.77-6.49c-4.53,0-7.79,2.26-9.36,6.4C248.24,66.67,248.7,67.27,249.31,67.27z"/>
	<path class="st0" d="M340.79,48.03c1.37,0,2.47,1.11,2.47,2.47v41.27c0,15.47-10.12,25.05-26.38,25.05
		c-12.64,0-21.84-5.76-25.16-15.5c-0.54-1.58,0.7-3.2,2.37-3.2l11.63,0c0.87,0,1.64,0.48,2.11,1.2c1.66,2.52,5.31,3.86,8.89,3.86
		c5.68,0,10.25-3.61,10.25-9.46v-1.47c-3.7,2.35-8.09,3.69-12.84,3.69c-14.11,0-24.59-10.5-24.59-24.73
		c0-14.03,10.48-24.75,24.59-24.75c5.41,0,10.35,1.76,14.34,4.76c0.63,0.47,1.52,0.3,1.88-0.4l0.76-1.46
		c0.43-0.82,1.27-1.33,2.19-1.33L340.79,48.03z M327.41,71.21c0-6.22-4.37-10.73-10.47-10.73c-6.09,0-10.5,4.51-10.5,10.73
		c0,6.27,4.37,10.78,10.5,10.78C323.03,81.98,327.41,77.47,327.41,71.21z"/>
	<path class="st0" d="M429.46,66.37v27.37c0,1.93-1.57,3.5-3.5,3.5h-9.95c-1.93,0-3.5-1.57-3.5-3.5V68.47
		c0-5.14-1.89-7.62-5.49-7.62c-4.66,0-7.05,3.21-7.05,9.41v23.48c0,1.93-1.57,3.5-3.5,3.5h-9.51c-1.93,0-3.5-1.57-3.5-3.5V68.47
		c0-4.99-1.88-7.62-5.43-7.62c-4.59,0-7.11,3.29-7.11,9.41v23.48c0,1.93-1.57,3.5-3.5,3.5h-9.95c-1.93,0-3.5-1.57-3.5-3.5V51.53
		c0-1.93,1.57-3.5,3.5-3.5h6.17c1.37,0,2.62,0.8,3.18,2.05l1.03,2.25c0.21,0.47,0.83,0.56,1.18,0.18c3.51-3.67,8.36-5.94,13.65-5.94
		c5.66,0,10.47,2.4,13.57,6.49c0.29,0.38,0.82,0.4,1.14,0.04c3.54-4.04,8.72-6.53,14.52-6.53
		C422.45,46.57,429.46,54.79,429.46,66.37z"/>
	<path class="st0" d="M491.92,49.31v46.54c0,0.73-0.59,1.31-1.31,1.31h-10.61c-0.71,0-1.36-0.43-1.63-1.09l-0.72-1.72
		c-0.14-0.34-0.56-0.45-0.85-0.22c-3.94,2.99-8.83,4.7-14.28,4.7c-15.05,0-25.8-10.98-25.8-26.27c0-15.24,10.76-26.09,25.8-26.09
		c5.6,0,10.63,1.81,14.63,4.96c0.21,0.17,0.51,0.1,0.62-0.15l0.91-2c0.37-0.81,1.18-1.33,2.07-1.33l9.81,0
		C491.31,47.94,491.92,48.55,491.92,49.31z M475.79,72.59c0-7.14-5.83-12.29-13.32-10.98c-4.29,0.75-7.72,4.22-8.49,8.51
		c-1.36,7.63,3.65,13.69,10.79,13.69C471.13,83.81,475.79,79.02,475.79,72.59z"/>
	<g>
		<linearGradient id="SVGID_1_" gradientUnits="userSpaceOnUse" x1="78.3525" y1="68.5862" x2="95.0396" y2="84.6106">
			<stop  offset="0.1001" style="stop-color:#3A3AA5"/>
			<stop  offset="0.8264" style="stop-color:#1E75CC"/>
		</linearGradient>
		<path class="st1" d="M90.67,60.31c0.42-0.19,0.84-0.39,1.2-0.64c0.1-0.01,0.21-0.01,0.31-0.02c0.49,0.41,0.98,0.83,1.44,1.28
			c0,0,8.77,8.32,9.07,15.05c0,9.42-7.11,16.84-15.92,16.84c-4.32,0-8.22-1.82-11.08-4.75l-0.88-0.58c0.45-2.19,0.55-4.37,0.92-6.77
			c0.42-2.66,1.33-4.89,2.26-7.18c0.28-0.36,0.54-0.76,0.76-1.2c1.48-3.02,3.76-5.42,6.1-7.81c0.9-0.92,1.75-1.78,2.77-2.56
			c0.38-0.29,0.86-0.54,1.32-0.73L90.67,60.31z"/>
		
			<linearGradient id="SVGID_00000005228652953736640750000002466409268186451840_" gradientUnits="userSpaceOnUse" x1="35.4235" y1="68.1622" x2="20.5086" y2="86.3311">
			<stop  offset="0.1001" style="stop-color:#3A3AA5"/>
			<stop  offset="1" style="stop-color:#1E75CC"/>
		</linearGradient>
		<path style="fill:url(#SVGID_00000005228652953736640750000002466409268186451840_);" d="M40.09,85.13
			c-0.11-1.04-0.13-1.23-0.06-0.56c-0.09-0.61-0.18-1.22-0.26-1.82c-0.07-0.45-0.58-3.53-0.57-3.69c-1.21-3.02-2.06-6.4-3.41-8.87
			c-2.93-5.42-7.55-8.23-12.44-11.53c-0.22,0.15-0.44,0.3-0.65,0.47c-1.53,1.23-2.61,2.21-3.89,3.68c-0.39,0.44-1.14,1.26-1.48,1.74
			c-5.57,7.93-5.01,12.76-5.01,12.76s0.05,0.54,0.06,0.68c0.75,8.54,7.53,15.24,15.82,15.24c4.4,0,8.4-1.9,11.28-4.95l0.01,0.64
			c0.21-0.33,0.45-0.64,0.7-0.94C40.17,87.02,40.16,86.08,40.09,85.13z"/>
		
			<linearGradient id="SVGID_00000182527976108549239190000001951485293768600979_" gradientUnits="userSpaceOnUse" x1="25.9359" y1="26.7609" x2="99.6429" y2="26.7609">
			<stop  offset="0.1001" style="stop-color:#3A3AA5"/>
			<stop  offset="1" style="stop-color:#1E75CC"/>
		</linearGradient>
		<circle style="fill:url(#SVGID_00000182527976108549239190000001951485293768600979_);" cx="57.49" cy="26.76" r="17.57"/>
		
			<radialGradient id="SVGID_00000012440661644648552860000009851541087770532026_" cx="57.493" cy="87.5828" r="65.6674" gradientUnits="userSpaceOnUse">
			<stop  offset="0.2879" style="stop-color:#0EB1DD"/>
			<stop  offset="0.7211" style="stop-color:#256BB8"/>
			<stop  offset="0.7979" style="stop-color:#2766B5"/>
		</radialGradient>
		<path style="fill:url(#SVGID_00000012440661644648552860000009851541087770532026_);" d="M39.51,91.29
			c0.37-24.46-16.81-31.78-17.12-31.91c-0.01,0-0.01,0,0-0.01c0.23-0.24,12.75-12.87,33.42-5.67c0.93,0.32,2.44,0.36,3.34-0.02
			c17.65-7.42,33.17,6.07,33.45,6.31c0.01,0.01,0.01,0,0,0.01C92.24,60.13,75.25,67,75.61,91.43v15.98
			c0,9.12-8.69,16.47-18.44,16.31c-9.57-0.16-17.54-7.88-17.54-16.87L39.51,91.29z"/>
	</g>
</g>
</svg>
